<?xml version="1.0" encoding="utf-8"?>
<!-- Generator: Adobe Illustrator 23.1.0, SVG Export Plug-In . SVG Version: 6.00 Build 0)  -->
<svg version="1.2" baseProfile="tiny" xmlns="http://www.w3.org/2000/svg" xmlns:xlink="http://www.w3.org/1999/xlink" x="0px"
	 y="0px" viewBox="0 0 301.29 81.24" xml:space="preserve">
<g id="Layer_1" display="none">
	<g display="inline">
		<path d="M41.57,24.12v8.6h9.61v12.86c0,2.75-1.09,4.2-3.06,4.2c-1.58,0-2.99-1.11-4.49-3.33l-5.12,7.24
			c1.35,1.9,3.15,3.29,5.28,4.12c4.02-0.24,7.89-0.46,11.63-0.67c3.39-2.05,5.17-6.11,5.17-12.24V24.12H41.57z"/>
		<path d="M82.88,24.12v18.27c0,5.17-1.66,7.1-4.32,7.1c-2.67,0-4.32-1.93-4.32-7.1V24.12h-9.53v18.6c0,6.31,1.97,10.96,5.55,13.58
			c6.2-0.34,12.02-0.64,17.52-0.91c2.89-2.71,4.46-7.02,4.46-12.67v-18.6H82.88z"/>
		<path d="M104.68,34.17c0-1.16,0.88-2.13,3.67-2.13c2.46,0,5.09,0.83,7.87,2.52l2.87-8.27c-2.95-1.98-6.86-2.94-10.66-2.94
			c-8.76,0-13.16,5.12-13.16,11.4c0,12.61,15.62,9.18,15.62,13.43c0,1.16-0.96,1.84-3.67,1.84c-3.11,0-6.66-1.21-9.33-3.09l-3,8.12
			c8.32-0.38,15.95-0.68,23.18-0.9c1.49-1.92,2.23-4.3,2.23-6.84C120.3,34.85,104.68,38.23,104.68,34.17z"/>
		<path d="M120.58,24.12v8.84h8.28v20.93c3.22-0.07,6.39-0.11,9.53-0.14V32.96h8.27v-8.84H120.58z"/>
		<path d="M175.61,36.88c0-7.83-5.01-12.76-12.88-12.76h-13.6v29.61c3.15,0.01,6.31,0.04,9.52,0.09v-4.38h2.59l2.52,4.47
			c3.36,0.06,6.79,0.15,10.31,0.25l-3.79-6.65C173.67,45.43,175.61,41.76,175.61,36.88z M162.13,40.84h-3.48v-7.93h3.48
			c2.62,0,3.87,1.5,3.87,3.97C166,39.34,164.75,40.84,162.13,40.84z"/>
		<path d="M188.57,49.34V44.9h11.95v-8.22h-11.95v-3.96h13.61v-8.6H179.2v30.2c7.29,0.25,15.03,0.56,23.5,0.95v-5.93H188.57z"/>
		<path d="M224.95,24.12v15.37l-10.74-15.37h-7.84v31.32c3,0.14,6.09,0.28,9.29,0.45V42.58l9.63,13.78c2.9,0.15,5.87,0.3,8.94,0.46
			v-32.7H224.95z"/>
		<path d="M236.69,24.12v8.84h8.28v24.43c3.09,0.16,6.26,0.32,9.53,0.5V32.96h8.27v-8.84H236.69z"/>
	</g>
</g>
<g id="Layer_2">
	<g>
		<g>
			<path d="M101.2,53.38c1.69-2.87,2.54-4.28,4.24-7.04c1.23,1.9,2.4,2.77,3.7,2.64c1.64-0.16,2.54-1.52,2.54-3.94
				c0.01-4.52,0.01-6.78,0.02-11.3c-3.18,0.11-4.77,0.16-7.96,0.28c0-3.13,0-4.69,0-7.82c6.3-0.02,9.46-0.03,15.76-0.04
				c-0.02,7.09-0.02,10.63-0.04,17.72c-0.02,7.91-3.4,12.15-9.67,12.96C106.16,57.3,103.13,56.16,101.2,53.38z"/>
			<path d="M122.87,41.81c0.02-6.27,0.02-9.4,0.04-15.67c3.16-0.01,4.74-0.01,7.9-0.02c-0.02,5.99-0.03,8.98-0.04,14.96
				c-0.01,4.24,1.35,5.72,3.56,5.57c2.21-0.15,3.58-1.78,3.6-5.92c0.02-5.85,0.03-8.78,0.05-14.63c3.11-0.01,4.66-0.01,7.76-0.01
				c-0.02,5.83-0.03,8.74-0.05,14.57c-0.03,7.95-4.26,12.81-11.45,13.47C127.05,54.79,122.85,50.35,122.87,41.81z"/>
			<path d="M147.8,50.33c1.03-2.65,1.54-3.97,2.56-6.59c2.21,1.36,5.15,2.15,7.73,2.04c2.24-0.09,3.05-0.63,3.05-1.51
				c0.01-3.22-12.96-0.09-12.93-9.91c0.02-4.89,3.68-8.87,10.94-8.87c3.15,0,6.39,0.73,8.83,2.2c-0.96,2.47-1.43,3.72-2.39,6.21
				c-2.31-1.24-4.48-1.83-6.52-1.81c-2.31,0.03-3.05,0.78-3.05,1.67c-0.01,3.1,12.96,0.31,12.93,9.62
				c-0.01,4.62-3.67,8.62-10.95,9.02C154.09,52.62,150.14,51.8,147.8,50.33z"/>
			<path d="M176.07,32.61c-2.75,0.02-4.12,0.03-6.86,0.06c0.01-2.64,0.01-3.96,0.01-6.6c8.65-0.01,12.97-0.01,21.62-0.01
				c0,2.59,0,3.89,0,6.48c-2.75,0-4.12,0.01-6.86,0.02c-0.01,7.35-0.01,11.02-0.02,18.36c-3.17,0.05-4.75,0.08-7.92,0.17
				C176.06,43.7,176.06,40,176.07,32.61z"/>
			<path d="M202.94,44.66c-0.86-0.01-1.29-0.01-2.15-0.02c0,2.5,0,3.74,0,6.24c-3.17-0.03-4.75-0.04-7.92-0.03
				c0-9.92,0-14.87,0-24.79c4.51,0,6.77,0,11.28,0c6.53,0,10.68,3.66,10.69,9.47c0.01,3.62-1.6,6.32-4.41,7.8
				c1.98,3.12,2.96,4.68,4.94,7.85c-3.38-0.11-5.07-0.15-8.45-0.21C205.34,48.43,204.54,47.17,202.94,44.66z M203.67,32.52
				c-1.15,0-1.73-0.01-2.88-0.01c0,2.33,0,3.49,0,5.81c1.15,0.01,1.73,0.01,2.88,0.02c2.18,0.02,3.21-1.08,3.21-2.89
				C206.88,33.64,205.84,32.53,203.67,32.52z"/>
			<path d="M237.35,45.59c0.01,2.66,0.01,3.99,0.02,6.65c-7.8-0.5-11.7-0.69-19.5-0.97c-0.02-10.08-0.03-15.12-0.05-25.2
				c7.62,0.01,11.43,0.01,19.04,0.02c0.01,2.66,0.01,3.98,0.02,6.64c-4.51-0.08-6.77-0.11-11.28-0.17c0,1.2,0,1.79,0.01,2.99
				c3.96,0.07,5.95,0.11,9.91,0.21c0.01,2.53,0.01,3.79,0.02,6.32c-3.96-0.15-5.95-0.22-9.91-0.33c0,1.34,0.01,2.01,0.01,3.35
				C230.32,45.26,232.66,45.36,237.35,45.59z"/>
			<path d="M263.43,26.14c0.02,9.43,0.05,18.86,0.07,28.28c-2.59-0.27-3.89-0.4-6.48-0.64c-3.57-5.36-5.36-7.95-8.94-13
				c0.02,4.89,0.02,7.33,0.04,12.22c-3.08-0.25-4.62-0.36-7.7-0.57c-0.03-10.54-0.05-15.81-0.08-26.34c2.6,0,3.9,0.01,6.49,0.01
				c3.58,4.88,5.36,7.37,8.94,12.53c-0.02-5.01-0.02-7.51-0.04-12.52C258.81,26.13,260.35,26.13,263.43,26.14z"/>
			<path d="M272.34,33.8c-2.74-0.09-4.11-0.13-6.86-0.21c-0.01-2.98-0.01-4.47-0.02-7.45c8.65,0.02,12.97,0.03,21.62,0.06
				c0,3.25,0,4.88,0,8.13c-2.74-0.11-4.11-0.16-6.85-0.25c0.01,8.92,0.01,13.38,0.02,22.29c-3.15-0.41-4.72-0.6-7.87-0.97
				C272.37,46.76,272.36,42.44,272.34,33.8z"/>
		</g>
	</g>
	<text transform="matrix(0.8538 0 0 1 18.8251 58.3736)" font-family="'Montserrat-Black'" font-size="52.718px">J</text>
	<text transform="matrix(0.8538 0 0 1 41.5565 58.3736)" fill="#CC2229" font-family="'Montserrat-Black'" font-size="52.718px">R</text>
	<rect x="12.41" y="17.06" fill="none" stroke="#000000" stroke-width="2" stroke-miterlimit="10" width="67.47" height="47.11"/>
</g>
</svg>
