<svg id="Layer_2" data-name="Layer 2" xmlns="http://www.w3.org/2000/svg" viewBox="0 0 265 59.04"><defs><style>.cls-1,.cls-2{font-size:52.72px;font-family:Montserrat-Black, Montserrat;font-weight:800;}.cls-1{fill:#333;}.cls-2,.cls-4{fill:#cf4161;}.cls-3,.cls-5{fill:none;}.cls-3{stroke:#333;stroke-miterlimit:10;stroke-width:2px;}</style></defs><title>logo2</title><text class="cls-1" transform="translate(13.54 44.81) scale(0.85 1)">J</text><text class="cls-2" transform="translate(36.27 44.81) scale(0.85 1)">R</text><rect class="cls-3" x="6.13" y="3.5" width="67.47" height="47.11"/><path class="cls-4" d="M98.75,53.46c.69,0,1.49,0,2.18,0,2,0,3.62-.67,3.62-3.45V22.58h6.31V49.65c0,7.21-4.3,9.06-9.07,9.06a29.68,29.68,0,0,1-3-.1Z" transform="translate(-5.29 -13.56)"/><path class="cls-4" d="M121.2,22.58V50.37c0,2.57,1.26,3.5,3.27,3.5s3.27-.93,3.27-3.5V22.58h6V50c0,5.76-3.22,9.06-9.42,9.06s-9.42-3.3-9.42-9.06V22.58Z" transform="translate(-5.29 -13.56)"/><path class="cls-4" d="M146.52,22.17c6.15,0,9.3,3.29,9.3,9v1.14h-6v-1.5c0-2.57-1.15-3.55-3.16-3.55s-3.15,1-3.15,3.55c0,7.42,12.34,8.81,12.34,19.1,0,5.76-3.21,9.06-9.42,9.06s-9.41-3.3-9.41-9.06V47.75h6v2.57c0,2.57,1.26,3.5,3.27,3.5s3.28-.93,3.28-3.5c0-7.41-12.35-8.8-12.35-19.1C137.22,25.46,140.38,22.17,146.52,22.17Z" transform="translate(-5.29 -13.56)"/><path class="cls-4" d="M157.66,22.58h19.53v5.15h-6.61V58.61h-6.31V27.73h-6.61Z" transform="translate(-5.29 -13.56)"/><path class="cls-4" d="M193.15,58.61c-.35-.93-.58-1.5-.58-4.43V48.52c0-3.35-1.26-4.58-4.13-4.58h-2.18V58.61h-6.32v-36h9.53c6.55,0,9.36,2.73,9.36,8.28V33.7c0,3.7-1.32,6.12-4.13,7.3,3.16,1.19,4.19,3.91,4.19,7.67v5.56a9.66,9.66,0,0,0,.69,4.38Zm-6.89-30.88V38.79h2.47c2.35,0,3.79-.93,3.79-3.81V31.43c0-2.57-1-3.7-3.22-3.7Z" transform="translate(-5.29 -13.56)"/><path class="cls-4" d="M209.34,37.76H218v5.15h-8.67V53.46h10.91v5.15H203v-36h17.23v5.15H209.34Z" transform="translate(-5.29 -13.56)"/><path class="cls-4" d="M229.78,32.51v26.1H224.1v-36H232c2.6,8.62,3.9,12.94,6.49,21.56V22.58h5.63v36h-6.49Z" transform="translate(-5.29 -13.56)"/><path class="cls-4" d="M246.84,22.58h19.52v5.15h-6.6V58.61h-6.32V27.73h-6.6Z" transform="translate(-5.29 -13.56)"/><rect id="_Slice_" data-name="&lt;Slice&gt;" class="cls-5" y="0.5" width="265" height="53"/></svg>